<?xml version="1.0" encoding="utf-8"?>
<!-- Generator: Adobe Illustrator 16.0.0, SVG Export Plug-In . SVG Version: 6.00 Build 0)  -->
<!DOCTYPE svg PUBLIC "-//W3C//DTD SVG 1.1//EN" "http://www.w3.org/Graphics/SVG/1.1/DTD/svg11.dtd">
<svg version="1.1" id="Layer_1" xmlns="http://www.w3.org/2000/svg" xmlns:xlink="http://www.w3.org/1999/xlink" x="0px" y="0px"
	 width="33.5px" height="32.789px" viewBox="9 0.827 33.5 32.789" enable-background="new 9 0.827 33.5 32.789"
	 xml:space="preserve">
<g id="facebook_1_">
	<path d="M24.798,1.801c-1.248,0.677-2.122,1.582-2.601,2.692c-0.448,1.044-0.667,2.521-0.667,4.524v0.682h-3.229v6.518h3.229
		v17.399h7.757V16.218h4.344V9.7h-4.344V9.122c0-1.256,0.258-1.571,0.289-1.605c0.167-0.179,0.559-0.278,1.098-0.278
		c0.771,0,1.594,0.101,2.443,0.305l0.984,0.235l1.145-5.902l-0.829-0.261C31.055,0.558,27.174,0.512,24.798,1.801z M32.572,5.453
		c-1.836-0.298-3.564-0.183-4.424,0.742c-0.545,0.583-0.809,1.54-0.809,2.925v2.523h4.346v2.63H27.34v17.401h-3.87V14.274h-3.227
		v-2.629h3.227V9.018c0-1.707,0.171-2.971,0.51-3.753c0.308-0.712,0.877-1.284,1.744-1.756c1.702-0.924,4.656-0.938,7.28-0.277
		L32.572,5.453z"/>
</g>
</svg>
