<?xml version="1.0" encoding="utf-8"?>
<!-- Generator: Adobe Illustrator 16.0.0, SVG Export Plug-In . SVG Version: 6.00 Build 0)  -->
<!DOCTYPE svg PUBLIC "-//W3C//DTD SVG 1.1//EN" "http://www.w3.org/Graphics/SVG/1.1/DTD/svg11.dtd">
<svg version="1.1" id="Layer_1" xmlns="http://www.w3.org/2000/svg" xmlns:xlink="http://www.w3.org/1999/xlink" x="0px" y="0px"
	 width="480px" height="480px" viewBox="0 0 480 480" enable-background="new 0 0 480 480" xml:space="preserve">
<g>
	<path fill-rule="evenodd" clip-rule="evenodd" d="M481,216c-1.427,4.217-2.553,8.565-4.339,12.624
		c-4.797,10.901-11.419,16.949-27.343,25.547c0.232,0.512,0.422,1.084,0.729,1.584c24.241,39.301,17.616,78.871-9.738,112.397
		c-23.387,28.664-53.883,47.48-88.068,60.117c-84.857,31.367-168.387,28.039-249.714-12.328
		c-27.643-13.721-51.674-32.384-68.764-58.656c-21.438-32.956-22.583-66.612-2.379-100.664c0.421-0.71,0.811-1.439,1.344-2.391
		c-0.883-0.503-1.683-1.039-2.546-1.438c-15.198-7.041-24.926-18.486-28.333-35.06C1.723,217.123,1.29,216.576,1,216
		c0-4.667,0-9.333,0-14c0.867-2.82,1.656-5.667,2.612-8.456c6.664-19.441,24.746-32.439,45.204-32.535
		c20.186-0.094,38.137,12.674,45.014,32.028c0.5,1.406,0.929,2.838,1.562,4.785c42.744-23.571,88.653-34.856,137.116-36.586
		c11.21-34.562,22.336-68.861,33.457-103.161c1.077-3.322,2.094-6.664,3.201-9.977c2.188-6.544,5.379-8.314,12.218-6.709
		c18.625,4.372,37.24,8.786,55.862,13.172c5.979,1.408,11.965,2.779,18.158,4.216c0.976-1.852,1.855-3.614,2.816-5.333
		c9.486-16.982,29.848-24.66,48.157-18.174c17.874,6.333,29.294,25.258,26.22,43.452c-3.393,20.079-19.666,34.216-39.457,34.272
		c-19.279,0.056-35.957-13.644-39.156-32.624c-0.707-4.195-2.135-6.11-6.449-7.07c-21.418-4.761-42.748-9.912-64.797-15.088
		c-11.104,34.233-22.143,68.271-33.397,102.972c48.831,1.889,94.494,13.049,137.113,36.582c0.679-1.931,1.243-3.597,1.847-5.249
		c7.341-20.074,26.451-32.626,47.871-31.45c20.733,1.139,38.771,16.524,43.67,37.223c0.299,1.257,0.769,2.474,1.158,3.71
		C481,206.667,481,211.333,481,216z M233.079,432.996c48.671,0.002,86.772-6.844,122.108-21.08
		c27.357-11.022,52.076-26.083,71.292-49.021c28.987-34.602,30.085-76.304,2.771-112.271c-15.352-20.216-35.61-34.374-58.126-45.433
		c-34.877-17.131-72.035-25.376-110.657-27.56c-45.988-2.6-90.745,3.213-133.667,20.44c-27.535,11.052-52.366,26.249-71.62,49.392
		c-28.435,34.177-29.609,75.559-3.059,111.11c13.617,18.234,31.349,31.645,51.213,42.305
		C146.311,423.941,192.724,432.504,233.079,432.996z M464.994,208.895c-0.036-16.274-12.569-30.135-28.739-31.781
		c-16.26-1.655-31.114,9.433-34.493,25.389c-0.721,3.398,0.457,4.853,2.892,6.921c10.878,9.244,21.393,18.913,32.222,28.216
		c1.415,1.217,4.145,2.104,5.826,1.619C455.92,235.452,465.026,222.81,464.994,208.895z M17.013,208.819
		c-0.076,13.926,8.927,26.461,22.193,30.411c1.619,0.482,4.246-0.06,5.522-1.156c11.198-9.617,22.117-19.561,33.323-29.169
		c2.073-1.777,2.705-3.154,2.214-5.82c-2.941-15.974-17.627-27.311-33.961-25.993C29.95,178.411,17.103,192.326,17.013,208.819z"/>
	<path fill-rule="evenodd" clip-rule="evenodd" d="M129.004,272.712c0.111-17.673,14.608-31.863,32.394-31.708
		c17.443,0.152,31.613,14.511,31.597,32.02c-0.016,17.689-14.444,32.033-32.159,31.972
		C143.162,304.935,128.893,290.463,129.004,272.712z"/>
	<path fill-rule="evenodd" clip-rule="evenodd" d="M289.004,272.676c0.125-17.665,14.641-31.842,32.43-31.672
		c17.436,0.166,31.593,14.546,31.562,32.056c-0.031,17.686-14.474,32.012-32.196,31.936
		C303.131,304.92,288.879,290.433,289.004,272.676z"/>
	<path fill-rule="evenodd" clip-rule="evenodd" d="M241.269,393.812c-19.993-0.91-39.658-2.605-58.469-9.802
		c-9.74-3.727-18.575-8.958-26.172-16.152c-4.264-4.038-4.789-8.722-1.527-12.298c3.262-3.575,8.064-3.465,12.322,0.493
		c13.323,12.383,29.785,17.162,47.225,19.304c23.132,2.84,46.184,2.614,68.941-3.142c11.795-2.983,22.479-8.091,31.417-16.586
		c3.751-3.565,8.39-3.531,11.597-0.348c3.375,3.35,3.256,8.169-0.631,11.934c-13.55,13.122-30.307,19.741-48.522,22.673
		C265.487,391.812,253.335,392.546,241.269,393.812z"/>
</g>
</svg>
