<?xml version="1.0" encoding="utf-8"?>
<!-- Generator: Adobe Illustrator 18.1.0, SVG Export Plug-In . SVG Version: 6.00 Build 0)  -->
<svg version="1.1" id="Layer_1" xmlns="http://www.w3.org/2000/svg" xmlns:xlink="http://www.w3.org/1999/xlink" x="0px" y="0px"
	 viewBox="0 0 381.5 69.7" enable-background="new 0 0 381.5 69.7" xml:space="preserve">
<g>
	<path fill="#176DEE" d="M36.4,49.4c-1.1,5.4-3.2,9.5-6.4,12.4c-3.2,2.9-6.7,4.3-10.6,4.3c-4.6,0-8.6-1.9-12.1-5.8
		c-3.4-3.9-5.2-9.1-5.2-15.7C2.1,38.2,4,33,7.8,29c3.8-4,8.4-6,13.7-6c4,0,7.3,1.1,9.9,3.2s3.9,4.3,3.9,6.6c0,1.1-0.4,2-1.1,2.7
		c-0.7,0.7-1.7,1-3,1c-1.7,0-3.1-0.6-4-1.7c-0.5-0.6-0.8-1.8-1-3.6c-0.2-1.7-0.8-3.1-1.8-4c-1-0.9-2.5-1.3-4.3-1.3
		c-3,0-5.3,1.1-7.2,3.3c-2.4,2.9-3.6,6.7-3.6,11.5c0,4.9,1.2,9.1,3.6,12.9c2.4,3.7,5.6,5.6,9.7,5.6c2.9,0,5.5-1,7.8-3
		c1.6-1.4,3.2-3.8,4.8-7.4L36.4,49.4z"/>
	<path fill="#D74530" d="M54.4,1.7v54c0,2.5,0.2,4.2,0.6,5.1c0.4,0.8,0.9,1.5,1.7,1.9c0.8,0.4,2.2,0.6,4.3,0.6v1.6H41v-1.6
		c1.9,0,3.1-0.2,3.8-0.6c0.7-0.4,1.2-1,1.6-1.9c0.4-0.9,0.6-2.6,0.6-5.1v-37c0-4.6-0.1-7.4-0.3-8.5c-0.2-1.1-0.5-1.8-1-2.2
		c-0.5-0.4-1-0.6-1.8-0.6c-0.8,0-1.7,0.2-2.9,0.7l-0.8-1.6l12.1-5H54.4z"/>
	<path fill="#FFB801" d="M82,23c6.2,0,11.1,2.3,14.8,7c3.2,4,4.8,8.6,4.8,13.8c0,3.6-0.9,7.3-2.6,11.1c-1.7,3.7-4.2,6.5-7.2,8.4
		c-3.1,1.9-6.5,2.8-10.2,2.8c-6.1,0-11-2.4-14.6-7.3c-3.1-4.1-4.6-8.7-4.6-13.9c0-3.7,0.9-7.4,2.8-11.1c1.9-3.7,4.3-6.4,7.3-8.2
		S78.6,23,82,23z M80.6,25.9c-1.6,0-3.1,0.5-4.7,1.4c-1.6,0.9-2.9,2.6-3.8,4.9c-1,2.3-1.5,5.3-1.5,9c0,5.9,1.2,11,3.5,15.3
		c2.4,4.3,5.5,6.4,9.3,6.4c2.9,0,5.2-1.2,7.1-3.6s2.8-6.4,2.8-12.2c0-7.2-1.6-12.9-4.7-17.1C86.5,27.3,83.8,25.9,80.6,25.9z"/>
	<path fill="#176DEE" d="M119.4,31.6c4.8-5.7,9.3-8.6,13.6-8.6c2.2,0,4.1,0.6,5.7,1.7c1.6,1.1,2.9,2.9,3.8,5.5c0.7,1.8,1,4.5,1,8.2
		v17.4c0,2.6,0.2,4.3,0.6,5.2c0.3,0.7,0.9,1.3,1.6,1.7c0.7,0.4,2.1,0.6,4,0.6v1.6h-20.1v-1.6h0.8c1.9,0,3.2-0.3,4-0.9
		c0.8-0.6,1.3-1.4,1.6-2.6c0.1-0.4,0.2-1.8,0.2-4.2V39.1c0-3.7-0.5-6.4-1.4-8.1c-1-1.7-2.6-2.5-4.9-2.5c-3.5,0-7,1.9-10.5,5.8v21.5
		c0,2.8,0.2,4.5,0.5,5.1c0.4,0.9,1,1.5,1.7,1.9c0.7,0.4,2.2,0.6,4.4,0.6v1.6h-20.1v-1.6h0.9c2.1,0,3.5-0.5,4.2-1.6
		c0.7-1.1,1.1-3.1,1.1-6V40.6c0-4.9-0.1-7.9-0.3-8.9c-0.2-1.1-0.6-1.8-1-2.2c-0.5-0.4-1.1-0.6-1.8-0.6c-0.8,0-1.8,0.2-3,0.7
		l-0.7-1.6l12.3-5h1.9V31.6z"/>
	<path fill="#009655" d="M159.9,39.5c0,6,1.4,10.8,4.4,14.2c3,3.4,6.4,5.2,10.4,5.2c2.7,0,5-0.7,7-2.2c2-1.5,3.6-4,5-7.5l1.4,0.9
		c-0.6,4.1-2.4,7.8-5.4,11.1c-3,3.3-6.7,5-11.2,5c-4.9,0-9.1-1.9-12.6-5.7c-3.5-3.8-5.2-8.9-5.2-15.4c0-7,1.8-12.4,5.4-16.3
		c3.6-3.9,8-5.8,13.4-5.8c4.6,0,8.3,1.5,11.2,4.5c2.9,3,4.4,7,4.4,12.1H159.9z M159.9,37h18.8c-0.1-2.6-0.5-4.4-0.9-5.5
		c-0.7-1.7-1.8-3-3.3-3.9c-1.5-0.9-3-1.4-4.6-1.4c-2.5,0-4.7,1-6.6,2.9C161.4,30.9,160.2,33.6,159.9,37z"/>
	<path fill="#FFB801" d="M249.7,52.4l-0.5,12.5h-35.9v-1.6l27-36H227c-2.9,0-4.8,0.2-5.6,0.6s-1.6,1.1-2.2,2.1
		c-0.8,1.5-1.3,3.3-1.4,5.5h-1.8l0.3-11.3h34.1v1.6l-27.3,36.1H238c3.1,0,5.2-0.3,6.3-0.8c1.1-0.5,2-1.4,2.7-2.7
		c0.5-0.9,0.9-2.9,1.2-6H249.7z"/>
	<path fill="#176DEE" d="M272.9,23c6.2,0,11.1,2.3,14.8,7c3.2,4,4.8,8.6,4.8,13.8c0,3.6-0.9,7.3-2.6,11.1c-1.7,3.7-4.2,6.5-7.2,8.4
		c-3.1,1.9-6.5,2.8-10.2,2.8c-6.1,0-11-2.4-14.6-7.3c-3.1-4.1-4.6-8.7-4.6-13.9c0-3.7,0.9-7.4,2.8-11.1c1.9-3.7,4.3-6.4,7.3-8.2
		S269.5,23,272.9,23z M271.5,25.9c-1.6,0-3.1,0.5-4.7,1.4c-1.6,0.9-2.9,2.6-3.8,4.9c-1,2.3-1.5,5.3-1.5,9c0,5.9,1.2,11,3.5,15.3
		c2.4,4.3,5.5,6.4,9.3,6.4c2.9,0,5.2-1.2,7.1-3.6s2.8-6.4,2.8-12.2c0-7.2-1.6-12.9-4.7-17.1C277.4,27.3,274.7,25.9,271.5,25.9z"/>
	<path fill="#FFB801" d="M310.3,31.6c4.8-5.7,9.3-8.6,13.6-8.6c2.2,0,4.1,0.6,5.7,1.7c1.6,1.1,2.9,2.9,3.8,5.5c0.7,1.8,1,4.5,1,8.2
		v17.4c0,2.6,0.2,4.3,0.6,5.2c0.3,0.7,0.9,1.3,1.6,1.7c0.7,0.4,2.1,0.6,4,0.6v1.6h-20.1v-1.6h0.8c1.9,0,3.2-0.3,4-0.9
		c0.8-0.6,1.3-1.4,1.6-2.6c0.1-0.4,0.2-1.8,0.2-4.2V39.1c0-3.7-0.5-6.4-1.4-8.1c-1-1.7-2.6-2.5-4.9-2.5c-3.5,0-7,1.9-10.5,5.8v21.5
		c0,2.8,0.2,4.5,0.5,5.1c0.4,0.9,1,1.5,1.7,1.9c0.7,0.4,2.2,0.6,4.4,0.6v1.6h-20.1v-1.6h0.9c2.1,0,3.5-0.5,4.2-1.6s1.1-3.1,1.1-6
		V40.6c0-4.9-0.1-7.9-0.3-8.9c-0.2-1.1-0.6-1.8-1-2.2c-0.5-0.4-1.1-0.6-1.8-0.6c-0.8,0-1.8,0.2-3,0.7l-0.7-1.6l12.3-5h1.9V31.6z"/>
	<path fill="#D74530" d="M350.8,39.5c0,6,1.4,10.8,4.4,14.2c3,3.4,6.4,5.2,10.4,5.2c2.7,0,5-0.7,7-2.2c2-1.5,3.6-4,5-7.5l1.4,0.9
		c-0.6,4.1-2.4,7.8-5.4,11.1c-3,3.3-6.7,5-11.2,5c-4.9,0-9.1-1.9-12.6-5.7c-3.5-3.8-5.2-8.9-5.2-15.4c0-7,1.8-12.4,5.4-16.3
		c3.6-3.9,8-5.8,13.4-5.8c4.6,0,8.3,1.5,11.2,4.5c2.9,3,4.4,7,4.4,12.1H350.8z M350.8,37h18.8c-0.1-2.6-0.5-4.4-0.9-5.5
		c-0.7-1.7-1.8-3-3.3-3.9c-1.5-0.9-3-1.4-4.6-1.4c-2.5,0-4.7,1-6.6,2.9C352.2,30.9,351.1,33.6,350.8,37z"/>
</g>
</svg>
